<svg width="603" height="1406" viewBox="0 0 603 1406" fill="none" xmlns="http://www.w3.org/2000/svg">
<rect x="303" y="1303" width="300" height="100" stroke="#1E1F28" stroke-width="5"/>
<rect x="3" y="1303" width="300" height="100" stroke="#1E1F28" stroke-width="5"/>
<rect x="303" y="1203" width="300" height="100" stroke="#1E1F28" stroke-width="5"/>
<rect x="3" y="1203" width="300" height="100" stroke="#1E1F28" stroke-width="5"/>
<rect x="303" y="1103" width="300" height="100" stroke="#1E1F28" stroke-width="5"/>
<rect x="303" y="1003" width="300" height="100" stroke="#1E1F28" stroke-width="5"/>
<rect x="3" y="1003" width="300" height="100" stroke="#1E1F28" stroke-width="5"/>
<rect x="3" y="1103" width="300" height="100" stroke="#1E1F28" stroke-width="5"/>
<rect x="303" y="903" width="300" height="100" stroke="#1E1F28" stroke-width="5"/>
<rect x="3" y="903" width="300" height="100" stroke="#1E1F28" stroke-width="5"/>
<rect x="303" y="803" width="300" height="100" stroke="#1E1F28" stroke-width="5"/>
<rect x="3" y="803" width="300" height="100" stroke="#1E1F28" stroke-width="5"/>
<rect x="303" y="703" width="300" height="100" stroke="#1E1F28" stroke-width="5"/>
<rect x="3" y="703" width="300" height="100" stroke="#1E1F28" stroke-width="5"/>
<rect x="3" y="603" width="300" height="100" fill="#1E1F28" stroke="#1E1F28" stroke-width="5"/>
<rect x="303" y="603" width="300" height="100" stroke="#1E1F28" stroke-width="5"/>
<rect x="303" y="503" width="300" height="100" stroke="#1E1F28" stroke-width="5"/>
<rect x="303" y="403" width="300" height="100" stroke="#1E1F28" stroke-width="5"/>
<rect x="303" y="303" width="300" height="100" stroke="#1E1F28" stroke-width="5"/>
<rect x="303" y="203" width="300" height="100" stroke="#1E1F28" stroke-width="5"/>
<rect x="303" y="103" width="300" height="100" stroke="#1E1F28" stroke-width="5"/>
<rect x="303" y="3" width="300" height="100" fill="#1E1F28" stroke="#1E1F28" stroke-width="5"/>
<path d="M141.32 656.024C141.32 666.904 146.44 674.264 153.672 674.264C158.792 674.264 162.504 670.808 163.976 664.984L169.736 666.904C167.304 674.84 161.48 679.704 153.672 679.704C143.048 679.704 135.432 670.04 135.432 656.024C135.432 642.008 143.048 632.344 153.672 632.344C161.48 632.344 167.304 637.208 169.736 645.144L163.976 647.064C162.504 641.24 158.792 637.784 153.672 637.784C146.44 637.784 141.32 645.144 141.32 656.024Z" fill="#EDF5E0"/>
<path d="M437.289 78.9999V33.0479H447.081C460.969 33.0479 469.033 42.0079 469.033 56.0239C469.033 70.0399 460.969 78.9999 447.081 78.9999H437.289ZM443.305 73.6879H447.081C457.705 73.6879 462.953 66.7119 462.953 56.0239C462.953 45.2719 457.705 38.3599 447.017 38.3599H443.305V73.6879Z" fill="#EDF5E0"/>
</svg>
